<?xml version="1.0" encoding="UTF-8"?><svg id="narrow_banners" xmlns="http://www.w3.org/2000/svg" viewBox="0 0 200 70"><g id="banner_1"><g id="gray_Catalyst"><path d="M165.6,22.19c-.73-.82-1.6-1.68-2.62-2.59-.2-.18-.39-.35-.57-.52-1.63-1.88-2.2-3.4-2.2-5.26,0-2.56,1.01-3.53,2.78-3.53.23,0,.44.02.65.05.1.42.16.9.16,1.48v1.48l1.98,2h5.26v-1.13c0-3.67-2.55-11.01-10.16-11.01-5.41,0-8.18,3.27-8.18,9,0,3.9,1.33,6.78,5.48,10.62.73.82,1.59,1.67,2.62,2.59.2.18.39.35.57.52,1.63,1.88,2.2,3.4,2.2,5.26,0,2.56-1.11,3.48-2.88,3.48-.27,0-.51-.03-.75-.07-.1-.4-.16-.86-.16-1.4v-2.56l-1.98-2h-5.26v2.2c0,5.74,3.31,11.01,10.27,11.01,5.46,0,8.29-3.27,8.29-9,0-3.9-1.33-6.78-5.47-10.62Z" style="fill:#fff;"/><polygon points="194.31 3.59 177.13 3.59 177.13 8.7 179.1 10.7 182.94 10.7 182.94 39.4 184.92 41.4 190.48 41.4 190.48 10.7 196.29 10.7 196.29 5.59 194.31 3.59" style="fill:#fff;"/><path d="M20.85,6.44c-1.35-2.11-3.65-3.26-6.87-3.26-5.46,0-8.29,3.27-8.29,9v18.62c0,3.65,1.15,6.3,3.4,7.74,1.35,2.11,3.65,3.26,6.87,3.26,5.46,0,8.29-3.27,8.29-9v-4.76l-1.98-2h-5.26v5.12c0,2.56-1.11,3.48-2.88,3.48-.27,0-.51-.03-.75-.07-.1-.4-.16-.86-.16-1.4V13.82c0-2.56,1.11-3.53,2.88-3.53.26,0,.51.03.74.07.1.42.17.89.17,1.45v3.84l1.98,2h5.25v-3.48c0-3.65-1.15-6.3-3.4-7.74Z" style="fill:#fff;"/><polygon points="145.04 3.59 139.74 3.59 136.22 17.26 133.22 5.59 131.25 3.59 125.44 3.59 132.46 27.53 132.46 39.4 134.44 41.4 140 41.4 140 29.53 147.02 5.59 145.04 3.59" style="fill:#fff;"/><path d="M44.45,3.59h-8.14l-5.66,35.82,1.98,2h5.11l.96-6.5h5.14l.66,4.5,1.98,2h5.61l-5.66-35.82-1.98-2ZM42.78,28.04h-3.09l1.54-10.65,1.54,10.65Z" style="fill:#fff;"/><path d="M92.09,3.59h-8.14l-5.66,35.82,1.98,2h5.11l.96-6.5h5.14l.66,4.5,1.98,2h5.61l-5.66-35.82-1.98-2ZM90.43,28.04h-3.09l1.54-10.65,1.54,10.65Z" style="fill:#fff;"/><polygon points="72.79 3.59 55.61 3.59 55.61 8.7 57.59 10.7 61.42 10.7 61.42 39.4 63.4 41.4 68.96 41.4 68.96 10.7 74.77 10.7 74.77 5.59 72.79 3.59" style="fill:#fff;"/><polygon points="121.5 34.28 114.33 34.28 114.33 5.59 112.35 3.59 106.79 3.59 106.79 39.4 108.77 41.4 123.48 41.4 123.48 36.29 121.5 34.28" style="fill:#fff;"/><path d="M0,0v43.18H0v26.82h200V0H0ZM14.59,61.67h-1.42l-.15-1.21h-.06c-.79.8-1.87,1.47-3.08,1.47-2.54,0-4.19-1.96-4.19-5.39s2.08-5.41,4.4-5.41c1.18,0,1.96.45,2.85,1.19l-.07-1.76v-3.97h1.72v15.08ZM22.51,61.67h-1.72v-10.29h1.72v10.29ZM21.66,49.26c-.67,0-1.19-.47-1.19-1.13s.52-1.12,1.19-1.12,1.19.44,1.19,1.12-.52,1.13-1.19,1.13ZM32.13,66.4c-2.49,0-4.21-.99-4.21-2.76,0-.88.56-1.71,1.49-2.33v-.08c-.52-.33-.91-.88-.91-1.69,0-.85.59-1.54,1.12-1.91v-.08c-.68-.54-1.32-1.54-1.32-2.76,0-2.25,1.75-3.67,3.81-3.67.56,0,1.07.11,1.43.25h3.55v1.34h-2.09c.48.47.83,1.24.83,2.12,0,2.2-1.64,3.57-3.72,3.57-.49,0-1.06-.12-1.52-.35-.37.31-.65.65-.65,1.22,0,.65.42,1.12,1.78,1.12h1.98c2.36,0,3.55.75,3.55,2.46,0,1.91-2,3.56-5.14,3.56ZM43.73,61.67h-1.72v-10.29h1.72v10.29ZM42.88,49.26c-.67,0-1.19-.47-1.19-1.13s.52-1.12,1.19-1.12,1.19.44,1.19,1.12-.52,1.13-1.19,1.13ZM53.12,61.92c-2.16,0-2.9-1.39-2.9-3.44v-5.69h-1.51v-1.32l1.59-.1.21-2.89h1.44v2.89h2.75v1.42h-2.75v5.72c0,1.26.4,1.99,1.57,1.99.36,0,.83-.14,1.16-.28l.33,1.31c-.57.2-1.25.38-1.89.38ZM66.65,61.67h-1.42l-.15-1.23h-.06c-.97.81-2.1,1.48-3.36,1.48-1.7,0-2.98-1.07-2.98-2.93,0-2.24,1.91-3.36,6.24-3.84,0-1.32-.44-2.6-2.1-2.6-1.17,0-2.23.56-3.03,1.1l-.67-1.19c.94-.62,2.36-1.34,3.99-1.34,2.48,0,3.53,1.67,3.53,4.23v6.31ZM74.44,61.92c-1.29,0-1.82-.83-1.82-2.32v-13.02h1.72v13.14c0,.53.23.74.48.74.1,0,.18,0,.38-.04l.23,1.33c-.24.09-.54.16-.99.16ZM96.76,61.92c-1.44,0-2.84-.62-3.79-1.43l.85-1.15c.88.72,1.78,1.22,3,1.22,1.33,0,2-.72,2-1.6,0-1.06-1.2-1.53-2.32-1.95-1.42-.53-3.03-1.24-3.03-2.97s1.3-2.92,3.5-2.92c1.26,0,2.37.52,3.16,1.16l-.82,1.11c-.7-.52-1.42-.92-2.32-.92-1.28,0-1.87.69-1.87,1.48,0,.98,1.11,1.35,2.26,1.78,1.47.56,3.1,1.16,3.1,3.12,0,1.67-1.31,3.06-3.71,3.06ZM109.58,61.92c-2.49,0-4.71-1.98-4.71-5.39s2.22-5.41,4.71-5.41,4.71,1.98,4.71,5.41-2.22,5.39-4.71,5.39ZM121.46,61.92c-1.29,0-1.82-.83-1.82-2.32v-13.02h1.72v13.14c0,.53.23.74.48.74.1,0,.18,0,.38-.04l.23,1.33c-.24.09-.54.16-.99.16ZM135.68,61.67h-1.42l-.15-1.61h-.06c-.94,1.12-1.96,1.87-3.35,1.87-2.14,0-3.1-1.4-3.1-4.02v-6.52h1.72v6.29c0,1.92.57,2.74,1.92,2.74,1.04,0,1.76-.52,2.72-1.73v-7.3h1.72v10.29ZM145.08,61.92c-2.16,0-2.9-1.39-2.9-3.44v-5.69h-1.51v-1.32l1.59-.1.21-2.89h1.44v2.89h2.75v1.42h-2.75v5.72c0,1.26.4,1.99,1.57,1.99.36,0,.83-.14,1.16-.28l.33,1.31c-.57.2-1.25.38-1.89.38ZM153.44,61.67h-1.72v-10.29h1.72v10.29ZM152.59,49.26c-.67,0-1.19-.47-1.19-1.13s.52-1.12,1.19-1.12,1.19.44,1.19,1.12-.52,1.13-1.19,1.13ZM163.59,61.92c-2.49,0-4.71-1.98-4.71-5.39s2.22-5.41,4.71-5.41,4.71,1.98,4.71,5.41-2.22,5.39-4.71,5.39ZM181.87,61.67h-1.72v-6.29c0-1.92-.57-2.74-1.92-2.74-1.04,0-1.76.54-2.78,1.58v7.45h-1.72v-10.29h1.42l.15,1.48h.06c.97-.96,2.02-1.74,3.41-1.74,2.14,0,3.1,1.4,3.1,4.02v6.52ZM190.6,61.92c-1.44,0-2.84-.62-3.79-1.43l.85-1.15c.88.72,1.78,1.22,3,1.22,1.33,0,2-.72,2-1.6,0-1.06-1.2-1.53-2.32-1.95-1.42-.53-3.03-1.24-3.03-2.97s1.3-2.92,3.5-2.92c1.26,0,2.37.52,3.16,1.16l-.82,1.11c-.7-.52-1.42-.92-2.32-.92-1.28,0-1.87.69-1.87,1.48,0,.98,1.11,1.35,2.26,1.78,1.47.56,3.1,1.16,3.1,3.12,0,1.67-1.31,3.06-3.71,3.06ZM1,43.18V1h198v42.18H1ZM29.97,54.79c0-1.51.96-2.4,2.16-2.4s2.16.91,2.16,2.4-.99,2.45-2.16,2.45-2.16-.95-2.16-2.45ZM112.51,56.54c0,2.36-1.18,3.94-2.93,3.94s-2.93-1.58-2.93-3.94,1.19-3.96,2.93-3.96,2.93,1.6,2.93,3.96ZM64.93,56.3v2.86c-.99.88-1.79,1.36-2.78,1.36s-1.78-.48-1.78-1.65c0-1.31,1.15-2.16,4.56-2.57ZM166.52,56.54c0,2.36-1.18,3.94-2.93,3.94s-2.93-1.58-2.93-3.94,1.19-3.96,2.93-3.96,2.93,1.6,2.93,3.96ZM35.59,63.1c0,1.07-1.27,2.1-3.21,2.1s-2.95-.7-2.95-1.8c0-.59.31-1.2,1.04-1.73.45.11.93.15,1.32.15h1.75c1.34,0,2.05.33,2.05,1.28ZM10.39,52.59c.83,0,1.61.29,2.48,1.07v5.4c-.85.94-1.67,1.4-2.61,1.4-1.78,0-2.79-1.47-2.79-3.94s1.29-3.93,2.92-3.93ZM22.27,15.66h-5.26v-3.84c0-2.56-1.11-3.53-2.88-3.53s-2.88.97-2.88,3.53v19.34c0,2.56,1.11,3.48,2.88,3.48s2.88-.92,2.88-3.48v-5.12h5.26v4.76c0,5.73-2.83,9-8.29,9s-8.29-3.27-8.29-9V12.18c0-5.73,2.83-9,8.29-9s8.29,3.27,8.29,9v3.48ZM72.79,8.7h-5.81v30.7h-5.56V8.7h-5.81V3.59h17.18v5.12ZM121.5,39.4h-14.7V3.59h5.56v30.7h9.15v5.12ZM138.02,27.53v11.87h-5.56v-11.87l-7.02-23.95h5.81l4.19,16.32h.1l4.19-16.32h5.3l-7.02,23.95ZM160.81,39.81c-5.46,0-8.29-3.27-8.29-9v-2.2h5.26v2.56c0,2.56,1.11,3.48,2.88,3.48s2.88-.92,2.88-3.48-1.11-4.55-4.75-7.78c-4.65-4.14-6.11-7.11-6.11-11.2,0-5.73,2.78-9,8.18-9s8.19,3.27,8.19,9v1.13h-5.26v-1.48c0-2.56-1.01-3.53-2.78-3.53s-2.78.97-2.78,3.53,1.11,4.55,4.75,7.78c4.65,4.14,6.12,7.11,6.12,11.2,0,5.73-2.83,9-8.29,9ZM194.31,8.7h-5.81v30.7h-5.56V8.7h-5.81V3.59h17.18v5.12ZM44.45,3.59h-8.14l-5.66,35.82h5.11l.96-6.5h6.82l.96,6.5h5.61L44.45,3.59ZM37.42,28.04l2.63-18.11h.1l2.63,18.11h-5.36ZM92.09,3.59h-8.14l-5.66,35.82h5.11l.96-6.5h6.82l.96,6.5h5.61l-5.66-35.82ZM85.07,28.04l2.63-18.11h.1l2.63,18.11h-5.36Z"/><path d="M195.04,38.18v.74h-.73v2.26h-.98v-2.26h-.73v-.74h2.44Z"/><path d="M198.6,38.18v3h-.86v-1.52s-.34,1.52-.34,1.52h-.61l-.36-1.48v1.48h-.86v-3h1.27c.04.18.08.39.12.64l.14.76.23-1.4h1.28Z"/></g></g></svg>